{"title":"The Hole (2010) 1080P MKV X264 AC3+DTS NLSubs-DMT","uid":5970340,"size":7481610123,"categoryP":"video","categoryS":"hd___movies","magnet":"?xt=urn:btih:fdd234691156803e3645a455951530742a3e680b&amp;dn=The+Hole+%282010%29+1080P+MKV+X264+AC3%2BDTS+NLSubs-DMT&amp;tr=udp%3A%2F%2Ftracker.openbittorrent.com%3A80&amp;tr=udp%3A%2F%2Fopen.demonii.com%3A1337&amp;tr=udp%3A%2F%2Ftracker.coppersurfer.tk%3A6969&amp;tr=udp%3A%2F%2Fexodus.desync.com%3A6969","seeders":0,"leechers":1,"uploader":"NLUPPER002","files":-1,"time":1290259543,"description":"The Hole (2010) 1080P MKV X264 AC3+DTS NLSubs-DMT\n\nVerenigde Staten\nThriller\n98 minuten\n\ngeregisseerd door Joe Dante\nmet Chris Massoglia, Haley Bennett en Nathan Gamble\n\nSusan verhuist met haar twee tienerzoons naar een landelijk huis. \nWanneer de twee broers in de kelder een geheime deur ontdekken, welk naar een donker, bodemloos hol leidt, \nrealiseren ze zich dat het een doorgang is naar hun duisterste nachtmerries en angsten..\n-----------------------------------------------------------------------------------------------------------\n\nPLOT\n\nA pair of brothers stumble upon a mysterious hole in their basement that \nleads to the darkest corridors of their fears and nightmares. \n------------------------------------------------------------------------------------------------------------\n &lt;a href=&quot;\nhttp://www.youtube.com/watch?v=AFqymmB196o&quot; rel=&quot;nofollow&quot; target=&quot;_NEW&quot;&gt;\nhttp://www.youtube.com/watch?v=AFqymmB196o&lt;/a&gt;\n\nMM:   &lt;a href=&quot; http://www.moviemeter.nl/film/58147&quot; rel=&quot;nofollow&quot; target=&quot;_NEW&quot;&gt; http://www.moviemeter.nl/film/58147&lt;/a&gt;\n\nIMDB:   &lt;a href=&quot; http://www.imdb.com/title/tt1085779/&quot; rel=&quot;nofollow&quot; target=&quot;_NEW&quot;&gt; http://www.imdb.com/title/tt1085779/&lt;/a&gt;\n------------------------------------------------------------------------------------------------------------\n\nINFO\n\nSource.........: 1080P BluRay \nFRAME RATE.....: 23.976Fps \nVIDEO CODEC....: X264\nAUDIO CODEC....: DTS\nAUDIO CODEC....: AC3\nRESOLUTION.....: 1920x1040\nRUNTIME........: 92 MINS \nGENERE.........: Horror | Thriller     \nLANGUAGE.......: English\nSUBTITLES......: English &amp; Dutch\n\nThanks To Bradje\n\nEnjoy\n\nGeneral\nComplete name                    : The.Hole.2010.1080P.MKV.X264.AC3.DTS.NLSubs-DMT.mkv\nFormat                           : Matroska\nFile size                        : 6.97 GiB\nDuration                         : 1h 32mn\nOverall bit rate                 : 10.8 Mbps\nMovie name                       : The Hole (2010) 1080P.X264.NL.SUBBED.Bradje\nEncoded date                     : UTC 2010-11-20 08:39:00\nWriting application              : mkvmerge v3.3.0 ('Language') built on Mar 24 2010 14:59:24\nWriting library                  : libebml v0.8.0 + libmatroska v0.9.0\n\nVideo\nID                               : 1\nFormat                           : AVC\nFormat/Info                      : Advanced Video Codec\nFormat profile                   : &lt;a class=&quot;__cf_email__&quot; href=&quot;/cdn-cgi/l/email-protection&quot; data-cfemail=&quot;1159787679515d253f20&quot;&gt;[email&amp;#160;protected]&lt;/a&gt;&lt;script cf-hash='f9e31' type=&quot;text/javascript&quot;&gt;\n/* &lt;![CDATA[ */!function(){try{var t=&quot;currentScript&quot;in document?document.currentScript:function(){for(var t=document.getElementsByTagName(&quot;script&quot;),e=t.length;e--;)if(t[e].getAttribute(&quot;cf-hash&quot;))return t[e]}();if(t&amp;&amp;t.previousSibling){var e,r,n,i,c=t.previousSibling,a=c.getAttribute(&quot;data-cfemail&quot;);if(a){for(e=&quot;&quot;,r=parseInt(a.substr(0,2),16),n=2;a.length-n;n+=2)i=parseInt(a.substr(n,2),16)^r,e+=String.fromCharCode(i);e=document.createTextNode(e),c.parentNode.replaceChild(e,c)}}}catch(u){}}();/* ]]&gt; */&lt;/script&gt;\nFormat settings, CABAC           : Yes\nFormat settings, ReFrames        : 4 frames\nMuxing mode                      : Container profile=&lt;a class=&quot;__cf_email__&quot; href=&quot;/cdn-cgi/l/email-protection&quot; data-cfemail=&quot;abfec5c0c5c4dcc5eb9f859a&quot;&gt;[email&amp;#160;protected]&lt;/a&gt;&lt;script cf-hash='f9e31' type=&quot;text/javascript&quot;&gt;\n/* &lt;![CDATA[ */!function(){try{var t=&quot;currentScript&quot;in document?document.currentScript:function(){for(var t=document.getElementsByTagName(&quot;script&quot;),e=t.length;e--;)if(t[e].getAttribute(&quot;cf-hash&quot;))return t[e]}();if(t&amp;&amp;t.previousSibling){var e,r,n,i,c=t.previousSibling,a=c.getAttribute(&quot;data-cfemail&quot;);if(a){for(e=&quot;&quot;,r=parseInt(a.substr(0,2),16),n=2;a.length-n;n+=2)i=parseInt(a.substr(n,2),16)^r,e+=String.fromCharCode(i);e=document.createTextNode(e),c.parentNode.replaceChild(e,c)}}}catch(u){}}();/* ]]&gt; */&lt;/script&gt;\nCodec ID                         : V_MPEG4/ISO/AVC\nDuration                         : 1h 32mn\nBit rate                         : 8 623 Kbps\nWidth                            : 1 920 pixels\nHeight                           : 1 040 pixels\nDisplay aspect ratio             : 16:9\nFrame rate                       : 23.976 fps\nColor space                      : YUV\nChroma subsampling               : 4:2:0\nBit depth                        : 8 bits\nScan type                        : Progressive\nBits/(Pixel*Frame)               : 0.180\nStream size                      : 5.44 GiB (78%)\nTitle                            : x264\nWriting library                  : x264 core 107 r1766 f9f0035\nEncoding settings                : cabac=1 / ref=4 / deblock=1:-1:-1 / analyse=0x3:0x113 / \nme=umh / subme=7 / psy=1 / psy_rd=1.00:0.00 / mixed_ref=1 / me_range=16 / chroma_me=1 / \ntrellis=1 / 8x8dct=1 / cqm=0 / deadzone=21,11 / fast_pskip=1 / chroma_qp_offset=-2 / \nthreads=12 / sliced_threads=0 / nr=0 / decimate=1 / interlaced=0 / constrained_intra=0 / \nbframes=3 / b_pyramid=2 / b_adapt=2 / b_bias=0 / direct=3 / weightb=1 / open_gop=0 / \nweightp=2 / keyint=250 / keyint_min=23 / scenecut=40 / intra_refresh=0 / rc_lookahead=40 / \nrc=2pass / mbtree=1 / bitrate=8623 / ratetol=1.0 / qcomp=0.60 / qpmin=10 / qpmax=51 / \nqpstep=4 / cplxblur=20.0 / qblur=0.5 / vbv_maxrate=50000 / vbv_bufsize=50000 / \nip_ratio=1.40 / aq=1:1.00 / nal_hrd=none\nLanguage                         : English\n\nAudio #1\nID                               : 2\nFormat                           : AC-3\nFormat/Info                      : Audio Coding 3\nMode extension                   : CM (complete main)\nCodec ID                         : A_AC3\nDuration                         : 1h 32mn\nBit rate mode                    : Constant\nBit rate                         : 640 Kbps\nChannel(s)                       : 6 channels\nChannel positions                : Front: L C R, Side: L R, LFE\nSampling rate                    : 48.0 KHz\nBit depth                        : 16 bits\nStream size                      : 424 MiB (6%)\nTitle                            : AC3\nLanguage                         : English\n\nAudio #2\nID                               : 3\nFormat                           : DTS\nFormat/Info                      : Digital Theater Systems\nCodec ID                         : A_DTS\nDuration                         : 1h 32mn\nBit rate mode                    : Constant\nBit rate                         : 1 510 Kbps\nChannel(s)                       : 6 channels\nChannel positions                : Front: L C R, Side: L R, LFE\nSampling rate                    : 48.0 KHz\nBit depth                        : 16 bits\nStream size                      : 1 000 MiB (14%)\nTitle                            : DTS\nLanguage                         : English\n\nText\nID                               : 4\nFormat                           : UTF-8\nCodec ID                         : S_TEXT/UTF8\nCodec ID/Info                    : UTF-8 Plain Text\nTitle                            : Subtitles\nLanguage                         : Dutch\n\nMenu\n00:00:00.000                     : en:Video Start\n00:05:00.000                     : en:Chapter 1 - 00 Hr 05 Min\n00:10:00.000                     : en:Chapter 2 - 00 Hr 10 Min\n00:15:00.000                     : en:Chapter 3 - 00 Hr 15 Min\n00:20:00.000                     : en:Chapter 4 - 00 Hr 20 Min\n00:25:00.000                     : en:Chapter 5 - 00 Hr 25 Min\n00:30:00.000                     : en:Chapter 6 - 00 Hr 30 Min\n00:35:00.000                     : en:Chapter 7 - 00 Hr 35 Min\n00:40:00.000                     : en:Chapter 8 - 00 Hr 40 Min\n00:45:00.000                     : en:Chapter 9 - 00 Hr 45 Min\n00:50:00.000                     : en:Chapter 10 - 00 Hr 50 Min\n00:55:00.000                     : en:Chapter 11 - 00 Hr 55 Min\n01:00:00.000                     : en:Chapter 12 - 01 Hr 00 Min\n01:05:00.000                     : en:Chapter 13 - 01 Hr 05 Min\n01:10:00.000                     : en:Chapter 14 - 01 Hr 10 Min\n01:15:00.000                     : en:Chapter 15 - 01 Hr 15 Min\n01:20:00.000                     : en:Chapter 16 - 01 Hr 20 Min\n01:25:00.000                     : en:Chapter 17 - 01 Hr 25 Min\n01:30:00.000                     : en:Chapter 18 - 01 Hr 30 Min\n\n","torrent":{"xt":"urn:btih:fdd234691156803e3645a455951530742a3e680b","amp;dn":"The+Hole+%282010%29+1080P+MKV+X264+AC3%2BDTS+NLSubs-DMT","amp;tr":["udp%3A%2F%2Ftracker.openbittorrent.com%3A80","udp%3A%2F%2Fopen.demonii.com%3A1337","udp%3A%2F%2Ftracker.coppersurfer.tk%3A6969","udp%3A%2F%2Fexodus.desync.com%3A6969"],"infoHash":"fdd234691156803e3645a455951530742a3e680b","infoHashBuffer":{"type":"Buffer","data":[253,210,52,105,17,86,128,62,54,69,164,85,149,21,48,116,42,62,104,11]},"announce":[],"urlList":[]}}